HIERARCHY
ROOT hip
{
  OFFSET 0 0 0
  CHANNELS 6 Xposition Yposition Zposition Zrotation Yrotation Xrotation
  JOINT abdomen
  {
    OFFSET 0 20.6881 -0.73152
    CHANNELS 3 Zrotation Xrotation Yrotation
    JOINT chest
    {
      OFFSET 0 11.7043 -0.48768
      CHANNELS 3 Zrotation Xrotation Yrotation
      JOINT neck
      {
        OFFSET 0 22.1894 -2.19456
        CHANNELS 3 Zrotation Xrotation Yrotation
        JOINT head
        {
          OFFSET -0.24384 7.07133 1.2192
          CHANNELS 3 Zrotation Xrotation Yrotation
          JOINT leftEye
          {
            OFFSET 4.14528 8.04674 8.04672
            CHANNELS 3 Zrotation Xrotation Yrotation
            End Site
            {
              OFFSET 1 0 0
            }
          }
          JOINT rightEye
          {
            OFFSET -3.6576 8.04674 8.04672
            CHANNELS 3 Zrotation Xrotation Yrotation
            End Site
            {
              OFFSET 1 0 0
            }
          }
        }
      }
      JOINT rCollar
      {
        OFFSET -2.68224 19.2634 -4.8768
        CHANNELS 3 Zrotation Xrotation Yrotation
        JOINT rShldr
        {
          OFFSET -8.77824 -1.95073 1.46304
          CHANNELS 3 Zrotation Xrotation Yrotation
          JOINT rForeArm
          {
            OFFSET -28.1742 -1.7115 0.48768
            CHANNELS 3 Zrotation Xrotation Yrotation
            JOINT rHand
            {
              OFFSET -22.5879 0.773209 7.07136
              CHANNELS 3 Zrotation Xrotation Yrotation
              JOINT rThumb1
              {
                OFFSET -1.2192 -0.487915 3.41376
                CHANNELS 3 Zrotation Xrotation Yrotation
                JOINT rThumb2
                {
                  OFFSET -3.37035 -0.52449 3.41376
                  CHANNELS 3 Zrotation Xrotation Yrotation
                  End Site
                  {
                    OFFSET -1.78271 -1.18214 1.43049
                  }
                }
              }
              JOINT rIndex1
              {
                OFFSET -7.75947 0.938293 5.60832
                CHANNELS 3 Zrotation Xrotation Yrotation
                JOINT rIndex2
                {
                  OFFSET -2.54057 -0.884171 1.56538
                  CHANNELS 3 Zrotation Xrotation Yrotation
                  End Site
                  {
                    OFFSET -1.62519 -0.234802 1.16502
                  }
                }
              }
              JOINT rMid1
              {
                OFFSET -8.24714 1.18213 3.41376
                CHANNELS 3 Zrotation Xrotation Yrotation
                JOINT rMid2
                {
                  OFFSET -3.10165 -0.590103 1.0647
                  CHANNELS 3 Zrotation Xrotation Yrotation
                  End Site
                  {
                    OFFSET -2.48547 -0.328903 0.83742
                  }
                }
              }
              JOINT rRing1
              {
                OFFSET -8.82822 0.546677 1.51678
                CHANNELS 3 Zrotation Xrotation Yrotation
                JOINT rRing2
                {
                  OFFSET -2.60934 -0.819778 -0.0198488
                  CHANNELS 3 Zrotation Xrotation Yrotation
                  End Site
                  {
                    OFFSET -2.33842 -0.294052 0.168128
                  }
                }
              }
              JOINT rPinky1
              {
                OFFSET -8.27202 -0.0477905 -0.4584
                CHANNELS 3 Zrotation Xrotation Yrotation
                JOINT rPinky2
                {
                  OFFSET -1.82734 -0.647385 -0.700984
                  CHANNELS 3 Zrotation Xrotation Yrotation
                  End Site
                  {
                    OFFSET -1.69225 -0.51767 -0.607171
                  }
                }
              }
            }
          }
        }
      }
      JOINT lCollar
      {
        OFFSET 2.68224 19.2634 -4.8768
        CHANNELS 3 Zrotation Xrotation Yrotation
        JOINT lShldr
        {
          OFFSET 8.77824 -1.95073 1.46304
          CHANNELS 3 Zrotation Xrotation Yrotation
          JOINT lForeArm
          {
            OFFSET 28.1742 -1.7115 0.48768
            CHANNELS 3 Zrotation Xrotation Yrotation
            JOINT lHand
            {
              OFFSET 22.5879 0.773209 7.07136
              CHANNELS 3 Zrotation Xrotation Yrotation
              JOINT lThumb1
              {
                OFFSET 1.2192 -0.487915 3.41376
                CHANNELS 3 Zrotation Xrotation Yrotation
                JOINT lThumb2
                {
                  OFFSET 3.37035 -0.52449 3.41376
                  CHANNELS 3 Zrotation Xrotation Yrotation
                  End Site
                  {
                    OFFSET 1.78271 -1.18214 1.43049
                  }
                }
              }
              JOINT lIndex1
              {
                OFFSET 7.75947 0.938293 5.60832
                CHANNELS 3 Zrotation Xrotation Yrotation
                JOINT lIndex2
                {
                  OFFSET 2.54057 -0.884171 1.56538
                  CHANNELS 3 Zrotation Xrotation Yrotation
                  End Site
                  {
                    OFFSET 1.62519 -0.234802 1.16502
                  }
                }
              }
              JOINT lMid1
              {
                OFFSET 8.24714 1.18213 3.41376
                CHANNELS 3 Zrotation Xrotation Yrotation
                JOINT lMid2
                {
                  OFFSET 3.10165 -0.590103 1.0647
                  CHANNELS 3 Zrotation Xrotation Yrotation
                  End Site
                  {
                    OFFSET 2.48547 -0.328903 0.83742
                  }
                }
              }
              JOINT lRing1
              {
                OFFSET 8.82822 0.546677 1.51678
                CHANNELS 3 Zrotation Xrotation Yrotation
                JOINT lRing2
                {
                  OFFSET 2.60934 -0.819778 -0.0198488
                  CHANNELS 3 Zrotation Xrotation Yrotation
                  End Site
                  {
                    OFFSET 2.33842 -0.294052 0.168128
                  }
                }
              }
              JOINT lPinky1
              {
                OFFSET 8.27202 -0.0477905 -0.4584
                CHANNELS 3 Zrotation Xrotation Yrotation
                JOINT lPinky2
                {
                  OFFSET 1.82734 -0.647385 -0.700984
                  CHANNELS 3 Zrotation Xrotation Yrotation
                  End Site
                  {
                    OFFSET 1.69225 -0.51767 -0.607171
                  }
                }
              }
            }
          }
        }
      }
    }
  }
  JOINT rButtock
  {
    OFFSET -8.77824 4.35084 1.2192
    CHANNELS 3 Zrotation Xrotation Yrotation
    JOINT rThigh
    {
      OFFSET 0 -1.70687 -2.19456
      CHANNELS 3 Zrotation Xrotation Yrotation
      JOINT rShin
      {
        OFFSET 0 -36.8199 0.73152
        CHANNELS 3 Zrotation Xrotation Yrotation
        JOINT rFoot
        {
          OFFSET 0.73152 -45.1104 -5.12064
          CHANNELS 3 Zrotation Xrotation Yrotation
          End Site
          {
            OFFSET -1.1221 -3.69964 12.103
          }
        }
      }
    }
  }
  JOINT lButtock
  {
    OFFSET 8.77824 4.35084 1.2192
    CHANNELS 3 Zrotation Xrotation Yrotation
    JOINT lThigh
    {
      OFFSET 0 -1.70687 -2.19456
      CHANNELS 3 Zrotation Xrotation Yrotation
      JOINT lShin
      {
        OFFSET 0 -36.8199 0.73152
        CHANNELS 3 Zrotation Xrotation Yrotation
        JOINT lFoot
        {
          OFFSET -0.73152 -45.1104 -5.12064
          CHANNELS 3 Zrotation Xrotation Yrotation
          End Site
          {
            OFFSET 1.1221 -3.69964 12.103
          }
        }
      }
    }
  }
}
MOTION
Frames:	6
Frame Time:	0.00833333
159.055 61.2269 0.187391 0.0 0.0 0.0 -1.09224 -0.00410999 -0.0300708 -0.301186 -0.00346589 -0.0521757 -3.82968e-14 0.0 1.98785e-16 -1.14826e-13 9.54166e-15 5.66847e-16 -0.0 0.0 0.0 -0.0 0.0 0.0 -1.91352e-14 -4.30959e-17 1.98785e-16 -3.99686e-13 -1.09332e-15 1.59028e-15 -6.92307e-12 2.04211e-12 7.95139e-14 -7.92745e-11 -2.23367e-12 2.67167e-13 -1.86989e-10 -4.16052e-13 7.95139e-13 -3.22929e-10 -7.18805e-13 1.36366e-12 -1.8698e-10 -4.1387e-13 7.76055e-13 7.73091 5.47488 0.417314 -1.86989e-10 -4.15957e-13 7.88778e-13 2.90554 0.965183 0.102902 -1.86985e-10 -4.16156e-13 7.84802e-13 10.2786 0.731801 0.0259123 -1.86997e-10 -4.13472e-13 7.91958e-13 2.22167 -0.733487 -0.20892 -1.91321e-14 -4.34841e-17 0.0 -4.04833e-13 -9.06955e-16 -5.96354e-16 -6.92963e-12 -2.09897e-12 1.04958e-13 -7.92485e-11 1.91432e-12 2.51264e-13 -1.86948e-10 -4.00252e-13 7.85597e-13 -3.22845e-10 -6.93361e-13 1.37241e-12 -1.86953e-10 -3.99557e-13 7.95139e-13 -7.73091 5.47488 -0.417314 -1.86947e-10 -4.00452e-13 7.88778e-13 -2.90554 0.965183 -0.102902 -1.86951e-10 -4.00253e-13 7.90368e-13 -10.2786 0.731801 -0.0259123 -1.8695e-10 -3.98762e-13 7.91958e-13 -2.22167 -0.733487 0.20892 -2.03217e-16 0.0 -3.88251e-19 -0.322559 -1.92007 -0.0117125 -0.00931631 -2.07855 -0.0769731 -0.505445 3.99668 0.139307 2.03217e-16 0.0 3.88251e-19 -1.34011 -5.66984 0.118142 -0.000497782 4.71376 -0.0320117 0.521481 0.954265 -0.0789445
159.327 57.9539 -10.1309 -176.977 -0.5436 -173.327 -0.63337 -0.810278 0.263964 -0.607271 -3.06345 -0.0948948 -2.03918 1.08705 -2.22676 3.14997 -1.97338 -4.05772 -0.0 0.0 0.0 -0.0 0.0 0.0 -2.61692e-14 1.13116e-13 1.46344e-14 2.68694 18.5351 4.79683 -25.9505 -23.6704 14.1236 0.000313852 0.394349 0.0554174 -5.24872e-11 -3.79347e-10 1.76486e-10 -9.14496e-11 -6.58242e-10 3.03385e-10 -5.24796e-11 -3.79344e-10 1.76467e-10 7.73091 5.47488 0.417314 -5.2487e-11 -3.79347e-10 1.7648e-10 2.90554 0.965183 0.102902 -5.24831e-11 -3.79346e-10 1.76479e-10 10.2786 0.731801 0.0259123 -5.24926e-11 -3.79343e-10 1.76486e-10 2.22167 -0.733487 -0.20892 -2.61738e-14 1.13112e-13 1.44185e-14 0.40942 18.1772 -6.12294 27.191 -24.7424 -13.6546 -0.0215314 -3.25594 0.454927 -1.35656e-10 -2.90089e-10 -1.57868e-10 -2.31965e-10 -5.06799e-10 -2.72222e-10 -1.35661e-10 -2.90087e-10 -1.57856e-10 -7.73091 5.47488 -0.417314 -1.35655e-10 -2.90088e-10 -1.57865e-10 -2.90554 0.965183 -0.102902 -1.35661e-10 -2.90088e-10 -1.57864e-10 -10.2786 0.731801 -0.0259123 -1.35656e-10 -2.90087e-10 -1.57866e-10 -2.22167 -0.733487 0.20892 -2.03217e-16 0.0 -3.88251e-19 -2.19531 -14.387 -12.6601 0.148216 20.5625 0.229024 -0.715518 -5.12855 -1.8212 2.03217e-16 0.0 3.88251e-19 1.49476 -17.7394 10.2929 0.0266633 26.0347 -0.325409 0.474241 -6.95126 -0.323429
159.378 57.8092 -10.1596 -176.854 -0.6781 -173.289 -0.138849 -1.66005 0.574288 -0.939083 -6.29839 -0.141036 -4.10381 2.23155 -4.58407 6.18311 -4.02823 -8.36419 -0.0 0.0 0.0 -0.0 0.0 0.0 -3.35624e-14 2.37831e-13 3.02619e-14 1.36834 37.6589 11.8502 -37.1622 -43.2785 37.9004 -0.000187084 0.815036 0.114545 9.00083e-11 -7.9223e-10 3.61212e-10 1.53745e-10 -1.37467e-09 6.20832e-10 9.00145e-11 -7.92226e-10 3.61192e-10 7.73091 5.47488 0.417314 9.00086e-11 -7.92229e-10 3.61205e-10 2.90554 0.965183 0.102902 9.00126e-11 -7.92228e-10 3.61207e-10 10.2786 0.731801 0.0259123 9.0005e-11 -7.92224e-10 3.61213e-10 2.22167 -0.733487 -0.20892 -3.35761e-14 2.37823e-13 3.00258e-14 5.96834 36.6429 -14.9685 38.8821 -45.5071 -37.8473 0.0122886 -6.70021 0.941175 -8.06935e-11 -6.05286e-10 -3.24945e-10 -1.34581e-10 -1.05732e-09 -5.60264e-10 -8.06978e-11 -6.05282e-10 -3.24931e-10 -7.73091 5.47488 -0.417314 -8.06937e-11 -6.05283e-10 -3.24942e-10 -2.90554 0.965183 -0.102902 -8.07025e-11 -6.05283e-10 -3.24942e-10 -10.2786 0.731801 -0.0259123 -8.06912e-11 -6.05283e-10 -3.24946e-10 -2.22167 -0.733487 0.20892 -2.03217e-16 0.0 -3.88251e-19 -10.4964 -25.3715 -28.1074 -0.0357129 44.4788 0.732174 -1.63755 -14.7403 -4.0189 2.03217e-16 0.0 3.88251e-19 9.64053 -28.9837 23.0531 0.407687 48.5578 -0.85763 0.345066 -15.3008 -0.608539
159.406 57.6761 -10.1987 -176.837 -0.7934 -173.276 0.309219 -2.42237 0.852717 -1.23332 -9.1834 -0.182262 -5.86434 3.24145 -6.68983 8.61473 -5.80124 -12.2295 -0.0 0.0 0.0 -0.0 0.0 0.0 -4.02372e-14 3.39435e-13 4.35055e-14 -6.48642 53.4777 23.3481 -31.2345 -48.2262 69.9481 -0.00134738 1.18304 0.166284 2.16517e-10 -1.13721e-09 5.27869e-10 3.7151e-10 -1.97329e-09 9.07427e-10 2.16522e-10 -1.13721e-09 5.27848e-10 7.73091 5.47488 0.417314 2.16517e-10 -1.13721e-09 5.27862e-10 2.90554 0.965183 0.102902 2.16521e-10 -1.13721e-09 5.27867e-10 10.2786 0.731801 0.0259123 2.16515e-10 -1.1372e-09 5.27873e-10 2.22167 -0.733487 -0.20892 -4.02573e-14 3.39424e-13 4.32555e-14 18.5254 51.2397 -28.6171 31.2514 -50.7031 -72.4232 0.0924436 -9.76533 1.38261 -3.30711e-11 -8.69466e-10 -4.75177e-10 -5.02048e-11 -1.51901e-09 -8.19411e-10 -3.30748e-11 -8.69462e-10 -4.7516e-10 -7.73091 5.47488 -0.417314 -3.30718e-11 -8.69463e-10 -4.75174e-10 -2.90554 0.965183 -0.102902 -3.30827e-11 -8.69462e-10 -4.75174e-10 -10.2786 0.731801 -0.0259123 -3.30669e-11 -8.69463e-10 -4.75181e-10 -2.22167 -0.733487 0.20892 -2.03217e-16 0.0 -3.88251e-19 -23.3012 -31.2515 -44.4134 -1.07782 65.8327 1.9474 -3.13444 -23.2635 -6.22773 2.03217e-16 0.0 3.88251e-19 21.8914 -36.3084 37.2041 1.74053 68.6628 -2.23589 0.161939 -22.7603 -0.873296
159.426 57.5505 -10.237 -176.904 -0.8866 -173.271 0.623832 -2.96631 1.05077 -1.42354 -11.1936 -0.209444 -7.04358 3.93372 -8.15755 10.1319 -6.98323 -14.9381 -0.0 0.0 0.0 -0.0 0.0 0.0 -4.51155e-14 3.83263e-13 5.07895e-14 -19.8842 62.6676 38.5378 -27.4237 -42.7628 89.0327 -0.00247135 1.41935 0.199518 3.03058e-10 -1.31243e-09 6.49355e-10 5.20698e-10 -2.27736e-09 1.11689e-09 3.03063e-10 -1.31243e-09 6.49336e-10 7.73091 5.47488 0.417314 3.03059e-10 -1.31243e-09 6.49348e-10 2.90554 0.965183 0.102902 3.03063e-10 -1.31243e-09 6.49355e-10 10.2786 0.731801 0.0259123 3.03058e-10 -1.31243e-09 6.49361e-10 2.22167 -0.733487 -0.20892 -4.51356e-14 3.83251e-13 5.0541e-14 34.7825 58.93 -44.7275 26.7495 -44.6542 -92.756 0.176439 -11.885 1.69495 -3.79757e-12 -1.00611e-09 -5.83295e-10 1.64952e-12 -1.7586e-09 -1.00632e-09 -3.80116e-12 -1.0061e-09 -5.83276e-10 -7.73091 5.47488 -0.417314 -3.79858e-12 -1.0061e-09 -5.83291e-10 -2.90554 0.965183 -0.102902 -3.81108e-12 -1.0061e-09 -5.83292e-10 -10.2786 0.731801 -0.0259123 -3.79222e-12 -1.0061e-09 -5.83301e-10 -2.22167 -0.733487 0.20892 -2.03217e-16 0.0 -3.88251e-19 -34.3459 -32.2533 -56.489 -5.24316 80.7696 6.17596 -4.60641 -29.1804 -7.97166 2.03217e-16 0.0 3.88251e-19 33.0001 -39.1367 48.5193 7.30188 82.7047 -7.78321 0.0177273 -27.9967 -1.02453
159.458 57.4237 -10.2694 -176.859 -1.01 -173.244 0.741159 -3.20346 1.132 -1.46437 -11.9801 -0.216938 -7.48891 4.19372 -8.72677 10.6273 -7.41812 -15.9927 -0.0 0.0 0.0 -0.0 0.0 0.0 -4.97668e-14 3.40911e-13 5.0579e-14 -28.0261 65.4114 47.196 -27.4228 -39.2546 94.2683 -0.00280162 1.46725 0.206256 3.47341e-10 -1.22485e-09 7.10103e-10 5.97641e-10 -2.12543e-09 1.22276e-09 3.47346e-10 -1.22485e-09 7.10087e-10 7.73091 5.47488 0.417314 3.47342e-10 -1.22485e-09 7.10098e-10 2.90554 0.965183 0.102902 3.47346e-10 -1.22485e-09 7.10103e-10 10.2786 0.731801 0.0259123 3.47341e-10 -1.22485e-09 7.10111e-10 2.22167 -0.733487 -0.20892 -4.97751e-14 3.40902e-13 5.0362e-14 43.3094 60.9225 -53.0317 26.801 -40.8666 -98.1419 0.214404 -12.6749 1.81325 5.7088e-12 -9.59674e-10 -6.35321e-10 1.81763e-11 -1.67946e-09 -1.09707e-09 5.7046e-12 -9.59669e-10 -6.353e-10 -7.73091 5.47488 -0.417314 5.70767e-12 -9.59672e-10 -6.35317e-10 -2.90554 0.965183 -0.102902 5.69427e-12 -9.59671e-10 -6.35319e-10 -10.2786 0.731801 -0.0259123 5.71389e-12 -9.59671e-10 -6.35328e-10 -2.22167 -0.733487 0.20892 -2.03217e-16 0.0 -3.88251e-19 -38.9538 -31.8658 -61.1959 -17.8198 86.69 18.7627 -5.25206 -31.5465 -8.63782 2.03217e-16 0.0 3.88251e-19 37.8432 -39.6744 53.1719 33.5658 88.1163 -34.0351 0.0374221 -30.1278 -0.932723
